<svg width="40" height="40" viewBox="0 0 40 40" fill="none" xmlns="http://www.w3.org/2000/svg">
<path d="M19.9558 0C9.32536 0 0.827466 4.83916 0.0471341 15.5703C-0.465865 22.6479 3.39032 25.7787 3.82215 26.5194L10.128 21.5325C9.82554 20.9429 7.90203 18.5778 8.05248 15.8727C8.26427 12.0575 12.808 7.31931 19.8209 7.31016C26.9281 7.31016 31.709 12.0697 31.7151 16.5148C31.7218 21.1486 27.3713 22.7123 25.0699 22.8918C23.6289 23.0041 22.3133 22.6961 21.6361 22.0882C21.3325 21.8151 21.1835 21.5112 21.1692 21.1318V11.7163L14.1383 11.7282V28.0382C14.0934 32.2741 11.8122 32.6058 11.1177 32.6064C10.503 32.6049 9.83317 32.3006 9.05742 31.9481L7.36736 31.1843C7.1217 33.843 7.02343 34.7335 7.02953 35.7259C7.03442 36.5721 7.04479 38.3327 8.7202 39.0737C10.0865 39.6782 11.5647 39.998 13.0027 39.998C18.9555 39.9889 21.0767 35.3459 21.1689 29.3471L21.1692 29.2455C22.3289 29.4777 23.7879 29.724 25.3904 29.6892C32.2486 29.5391 38.9694 24.4411 39.8856 17.4212C41.2332 7.09684 30.4499 0 19.9558 0V0ZM37.5617 17.1179C36.756 23.2879 30.5902 27.231 25.3391 27.3461C23.7089 27.3815 22.2291 27.0739 21.0401 26.8264C20.7487 26.7657 20.4731 26.7083 20.2131 26.6598L18.8255 26.3997V29.3203C18.708 36.7818 15.4441 37.6506 12.9951 37.6543C11.9044 37.6543 10.7231 37.3973 9.66838 36.9304C9.5396 36.8737 9.37938 36.8025 9.37297 35.7122C9.37083 35.371 9.38609 35.017 9.41234 34.6343C9.94761 34.8198 10.5091 34.9486 11.1158 34.9501C11.6856 34.9495 13.1501 34.822 14.4386 33.6507C15.7691 32.4413 16.4564 30.559 16.4817 28.0559V14.0679L18.8255 14.064V21.1514L18.8258 21.1855C18.8557 22.2124 19.286 23.1274 20.07 23.8317C21.2421 24.8849 23.1312 25.3936 25.2524 25.2282C29.874 24.8678 34.0659 21.6338 34.0589 16.5115C34.0509 10.8578 28.3271 4.96641 19.8194 4.96641C11.5461 4.9774 5.99316 10.69 5.7124 15.7427C5.61902 17.4258 6.05755 19.147 7.05059 20.9783L4.21399 23.2214C2.75648 21.0677 2.17268 18.6611 2.38447 15.74C3.26368 3.64897 14.9656 2.34374 19.9558 2.34374C28.9029 2.34374 38.7204 8.24033 37.5617 17.1179Z" fill="white"/>
</svg>
