<svg width="40" height="24" viewBox="0 0 40 24" fill="none" xmlns="http://www.w3.org/2000/svg">
<path d="M35.6046 15.961L35.583 15.9408C35.2415 15.625 34.1953 14.6049 33.8425 14.1591C33.4284 13.6029 33.5239 13.2384 33.8343 12.6923C34.2264 12.0022 35.0123 10.9436 35.8439 9.82262C38.5075 6.23345 40.2271 3.74873 39.8731 1.98381L39.6824 1.04111L29.8456 1.04539C29.8112 1.13834 29.2978 3.3977 27.1317 7.24495C25.561 10.0345 24.5307 10.9109 24.1678 11.0656L24.1117 11.0485C23.9936 10.9023 23.7873 10.5079 23.7024 9.49116C23.6139 8.42615 23.6924 7.1367 23.7684 5.88976C23.8572 4.42755 23.9338 3.1647 23.7504 2.26114L23.4516 0.789149C23.0906 0.731358 21.7688 0.22041 18.0863 0.181577C14.8981 0.148859 13.9615 0.610271 13.5016 1.01695L11.9803 2.36205L13.9032 3.01029C14.635 3.25705 14.878 3.54172 15.0772 4.95287C15.2072 5.87263 15.2753 7.41832 15.1349 8.79828C14.9332 10.7769 14.4495 11.1451 14.4245 11.1647C14.3412 11.1362 13.6347 10.8265 12.4082 8.22831C11.5573 6.42639 10.8115 4.29484 10.2664 2.73846C9.64266 0.956101 9.75496 1.33557 9.43849 0.493466L-0.078125 0.49316L0.537721 2.0893C3.10517 8.74996 5.46083 13.9515 8.6133 17.6874C12.0963 21.8151 16.4249 23.9763 22.2556 23.9763H23.4275V22.8021C23.4275 21.7044 23.5181 20.9139 23.7125 20.3146C23.8312 19.9495 23.989 19.6477 24.1547 19.3313C24.4007 18.8653 24.6412 18.6656 24.7724 18.6359C24.8914 18.6087 25.1008 18.6962 25.3327 18.8695C25.9986 19.367 26.5272 20.0208 27.0868 20.7131C27.8943 21.712 28.7293 22.7446 30.0541 23.4207C30.778 23.79 32.1049 23.9766 32.8351 23.9766C33.0283 23.9766 39.9134 23.9763 39.922 23.9763L39.8716 22.7538C39.7965 20.9259 38.3607 18.6402 35.6046 15.961ZM32.8806 21.6279H32.8617C32.3582 21.6362 31.3972 21.4708 31.1176 21.3283C30.2369 20.8788 29.6213 20.1171 28.9081 19.2352C28.2822 18.4607 27.6349 17.6599 26.7338 16.9869C26.005 16.4423 25.3431 16.283 24.8176 16.283C24.6076 16.283 24.419 16.3084 24.2572 16.3451C23.6472 16.4827 22.7747 16.9224 22.081 18.2369C21.8854 18.6109 21.6636 19.0344 21.4838 19.5884C21.2955 20.1682 21.1783 20.8124 21.1225 21.5961C16.7285 21.346 13.2999 19.6043 10.4032 16.1714C7.70998 12.9794 5.59114 8.51482 3.34717 2.84058C3.50953 2.84058 7.57783 2.8412 7.81801 2.8412C7.89156 3.0482 7.9709 3.27509 8.05513 3.51543C8.64259 5.19443 9.44734 7.49354 10.3955 9.45416C11.7533 12.2618 12.9932 13.5139 14.4156 13.5139C15.1258 13.5139 15.7627 13.2124 16.2574 12.6415C16.9626 11.8279 17.3722 10.4849 17.5095 8.53562C17.6178 6.99849 17.5171 5.46748 17.3981 4.62386C17.2998 3.92975 17.1598 3.20109 16.818 2.54826C18.2746 2.48252 20.225 2.58649 21.4606 2.76414C21.5729 3.37691 21.4997 4.58135 21.4289 5.74666C21.2577 8.56161 21.081 11.4665 22.5681 12.8256C22.8296 13.0647 23.107 13.1929 23.115 13.1981L23.8718 13.4307C24.1639 13.3405 25.8555 14.2004 29.0586 8.59952C30.0849 6.80494 31.0404 4.73699 31.5549 3.38639C32.7482 3.38394 36.8134 3.38853 37.291 3.38914C36.6144 4.88101 35.0111 7.00889 33.9631 8.42126C33.0494 9.6523 32.2605 10.7155 31.7975 11.5301C30.9376 13.0433 31.0822 14.3921 31.9779 15.5819L31.9919 15.6002C32.4918 16.2377 33.7263 17.418 33.9823 17.6559C35.8372 19.4603 36.731 20.7565 37.1564 21.6276H32.8806V21.6279Z" fill="white"/>
</svg>
